#!OML:ASF X:\für Bonn\!DataBase\2005_08_10_Bjorn_Final\c3d\bjorn.ASF
:FULLY-SPECIFIED
:DEGREES
48
root -15.9863 19.2806 -0.720312 1236.44 261.018 -160.311
lowerback -3.65368 2.74718 -5.93704
upperback 8.61494 4.4249 -5.16894
thorax 11.3083 1.76259 -1.72113
lowerneck -1.03202 -7.28982 -0.131911
upperneck 3.52062 -9.86503 3.38299
head 1.4526 -4.88246 0.902187
rclavicle -2.74323e-014 8.11041e-014
rhumerus 12.0209 0.907643 -71.8041
rradius 78.1455
rwrist -21.833
rhand -18.727 12.298
rfingers 7.12502
rthumb 7.56865 -17.5465
lclavicle -2.74323e-014 8.11041e-014
lhumerus -21.3004 -4.56316 82.3218
lradius 38.979
lwrist -9.81424
lhand -23.894 -6.20945
lfingers 7.12502
lthumb 2.57974 23.7547
rfemur -17.2649 -3.91041 9.82916
rtibia 44.4595
rfoot -8.82157 17.5162
rtoes -11.4275
lfemur -4.37087 3.67508 -21.2831
ltibia 25.5546
lfoot -9.58061 -9.6551
ltoes -5.84411
49
root -16.0904 19.2789 -0.719061 1236.96 260.697 -160.751
lowerback -3.70002 2.7384 -5.87114
upperback 8.59537 4.4178 -5.23829
thorax 11.3257 1.76903 -1.83163
lowerneck -0.948277 -7.35873 0.0213945
upperneck 3.46649 -9.95979 3.41734
head 1.41648 -4.92947 0.89081
rclavicle 3.02153e-014 -7.79236e-014
rhumerus 13.3412 0.437381 -71.0303
rradius 77.8643
rwrist -21.809
rhand -19.0657 12.454
rfingers 7.12502
rthumb 7.24174 -17.402
lclavicle 3.02153e-014 -7.79236e-014
lhumerus -21.2097 -5.00336 82.2989
lradius 39.3647
lwrist -9.27798
lhand -24.0264 -6.3385
lfingers 7.12502
lthumb 2.45183 23.6272
rfemur -17.5249 -3.66005 9.75919
rtibia 42.7895
rfoot -9.49799 17.4653
rtoes -11.5777
lfemur -3.98334 3.6194 -21.2605
ltibia 25.2639
lfoot -9.68553 -9.96041
ltoes -5.49314
50
root -16.1946 19.2851 -0.718894 1237.5 260.362 -161.178
lowerback -3.77882 2.73024 -5.7959
upperback 8.56621 4.41416 -5.30733
thorax 11.3525 1.77817 -1.94516
lowerneck -0.928216 -7.42939 0.105836
upperneck 3.51314 -10.0617 3.49624
head 1.42996 -4.97822 0.899308
rclavicle 5.28767e-014 1.59028e-015
rhumerus 14.6645 -0.0871324 -70.3068
rradius 77.4964
rwrist -21.7312
rhand -19.305 12.5086
rfingers 7.12502
rthumb 7.01074 -17.3553
lclavicle 5.28767e-014 1.59028e-015
lhumerus -21.1828 -5.389 82.2798
lradius 39.7343
lwrist -9.00176
lhand -24.1824 -6.6673
lfingers 7.12502
lthumb 2.30117 23.3
rfemur -17.7817 -3.35269 9.66724
rtibia 41.1217
rfoot -9.94723 17.3805
rtoes -10.9831
lfemur -3.6042 3.59581 -21.235
ltibia 24.9227
lfoot -9.75997 -10.2695
ltoes -5.37343
51
root -16.2988 19.2907 -0.719363 1237.9 260.025 -161.468
lowerback -3.88516 2.70323 -5.77844
upperback 8.56058 4.39163 -5.33728
thorax 11.4156 1.76996 -1.98625
lowerneck -0.878082 -7.46939 0.111967
upperneck 3.50599 -10.119 3.59111
head 1.42565 -5.00633 0.92838
rclavicle 4.49253e-014 -6.52014e-014
rhumerus 16.0507 -0.53608 -69.5195
rradius 77.0742
rwrist -21.6732
rhand -19.5232 12.5151
rfingers 7.12502
rthumb 6.80014 -17.3557
lclavicle 4.49253e-014 -6.52014e-014
lhumerus -21.1619 -5.66377 82.3255
lradius 40.087
lwrist -8.84807
lhand -24.3429 -6.91332
lfingers 7.12502
lthumb 2.14618 23.0556
rfemur -18.0128 -3.06663 9.54795
rtibia 39.4948
rfoot -10.3524 17.2715
rtoes -10.7751
lfemur -3.19591 3.5343 -21.2317
ltibia 24.5499
lfoot -9.82463 -10.5559
ltoes -5.22249
52
root -16.4021 19.2946 -0.721228 1238.41 259.681 -161.878
lowerback -3.94921 2.7006 -5.70551
upperback 8.52313 4.39213 -5.38196
thorax 11.4212 1.78056 -2.0719
lowerneck -0.773735 -7.53569 0.165333
upperneck 3.50175 -10.2126 3.69858
head 1.41192 -5.05268 0.95527
rclavicle -1.19271e-015 5.88403e-014
rhumerus 17.3613 -1.06066 -68.7584
rradius 76.5846
rwrist -21.5768
rhand -19.6784 12.4214
rfingers 7.12502
rthumb 6.65031 -17.4541
lclavicle -1.19271e-015 5.88403e-014
lhumerus -21.2087 -6.0241 82.3749
lradius 40.431
lwrist -8.81998
lhand -24.4877 -7.09715
lfingers 7.12502
lthumb 2.00638 22.8732
rfemur -18.2093 -2.70415 9.43664
rtibia 37.888
rfoot -10.4955 17.162
rtoes -9.93916
lfemur -2.77844 3.53042 -21.1839
ltibia 24.1468
lfoot -9.86641 -10.8992
ltoes -5.20536
53
root -16.5054 19.2974 -0.723422 1238.77 259.337 -162.138
lowerback -4.03853 2.68231 -5.66209
upperback 8.49394 4.37632 -5.41342
thorax 11.4485 1.77937 -2.12835
lowerneck -0.703439 -7.57914 0.206038
upperneck 3.53982 -10.2756 3.76498
head 1.41512 -5.08329 0.969973
rclavicle -6.63941e-014 6.83819e-014
rhumerus 18.7027 -1.52095 -67.9763
rradius 76.0478
rwrist -21.4848
rhand -19.863 12.2656
rfingers 7.12502
rthumb 6.47206 -17.6155
lclavicle -6.63941e-014 6.83819e-014
lhumerus -21.2745 -6.28781 82.4498
lradius 40.7577
lwrist -8.81736
lhand -24.5928 -7.37272
lfingers 7.12502
lthumb 1.90488 22.5985
rfemur -18.394 -2.37296 9.29293
rtibia 36.3311
rfoot -10.3714 17.0901
rtoes -8.95223
lfemur -2.37625 3.49006 -21.1629
ltibia 23.7722
lfoot -9.91071 -11.219
ltoes -5.01325
54
root -16.6076 19.2973 -0.727061 1239.13 258.991 -162.384
lowerback -4.14562 2.69052 -5.59002
upperback 8.4725 4.39695 -5.45896
thorax 11.4992 1.79847 -2.21068
lowerneck -0.645126 -7.64247 0.284533
upperneck 3.56824 -10.3671 3.86081
head 1.41759 -5.12746 0.986875
rclavicle 7.03698e-014 -9.22361e-014
rhumerus 19.9786 -2.03111 -67.1954
rradius 75.4885
rwrist -21.5487
rhand -20.059 12.195
rfingers 7.12502
rthumb 6.28289 -17.6918
lclavicle 7.03698e-014 -9.22361e-014
lhumerus -21.2991 -6.57723 82.5178
lradius 41.0477
lwrist -8.87215
lhand -24.6224 -7.59571
lfingers 7.12502
lthumb 1.87626 22.3758
rfemur -18.5629 -2.08564 9.15238
rtibia 34.8356
rfoot -9.97245 17.1412
rtoes -7.62353
lfemur -2.01668 3.47907 -21.1271
ltibia 23.4502
lfoot -9.9885 -11.5552
ltoes -5.03082
55
root -16.7096 19.2951 -0.731313 1239.45 258.639 -162.619
lowerback -4.22581 2.69691 -5.50494
upperback 8.44172 4.41051 -5.50485
thorax 11.5236 1.81607 -2.30232
lowerneck -0.556784 -7.69998 0.360635
upperneck 3.61329 -10.451 3.95453
head 1.42013 -5.16804 1.0046
rclavicle -2.14687e-014 3.97569e-014
rhumerus 21.2426 -2.52575 -66.4246
rradius 74.8296
rwrist -21.6733
rhand -20.2755 12.1812
rfingers 7.12502
rthumb 6.07386 -17.7117
lclavicle -2.14687e-014 3.97569e-014
lhumerus -21.3425 -6.82104 82.5963
lradius 41.2891
lwrist -8.93049
lhand -24.6002 -7.84604
lfingers 7.12502
lthumb 1.89771 22.1253
rfemur -18.6958 -1.75028 9.00939
rtibia 33.4191
rfoot -9.43518 17.2575
rtoes -6.11097
lfemur -1.67133 3.47575 -21.0835
ltibia 23.1912
lfoot -10.0849 -11.9325
ltoes -4.95534
56
root -16.8106 19.2892 -0.737129 1239.8 258.276 -162.845
lowerback -4.33912 2.71249 -5.4297
upperback 8.41049 4.44031 -5.53957
thorax 11.5663 1.83988 -2.3729
lowerneck -0.492837 -7.76553 0.481583
upperneck 3.64223 -10.5447 4.0182
head 1.41743 -5.21323 1.00522
rclavicle -4.49253e-014 6.36111e-015
rhumerus 22.5056 -3.01331 -65.6342
rradius 74.1148
rwrist -21.8305
rhand -20.5375 12.2164
rfingers 7.12502
rthumb 5.82093 -17.6836
lclavicle -4.49253e-014 6.36111e-015
lhumerus -21.3639 -7.0443 82.7048
lradius 41.4629
lwrist -9.09708
lhand -24.5179 -7.83052
lfingers 7.12502
lthumb 1.97714 22.1401
rfemur -18.8433 -1.53701 8.8809
rtibia 32.1052
rfoot -8.83081 17.4559
rtoes -4.75558
lfemur -1.41029 3.46625 -21.042
ltibia 23.0122
lfoot -10.2232 -12.2791
ltoes -4.97999
57
root -16.9111 19.2817 -0.742538 1240.13 257.901 -163.077
lowerback -4.41844 2.71833 -5.3378
upperback 8.37184 4.45133 -5.57547
thorax 11.5807 1.85687 -2.45762
lowerneck -0.392119 -7.81829 0.606742
upperneck 3.6945 -10.6206 4.06045
head 1.41391 -5.2499 1.00009
rclavicle 9.93923e-015 -6.36111e-015
rhumerus 23.7294 -3.41391 -64.894
rradius 73.2773
rwrist -22.1108
rhand -20.8555 12.5498
rfingers 7.12502
rthumb 5.51384 -17.3585
lclavicle 9.93923e-015 -6.36111e-015
lhumerus -21.4438 -7.21516 82.8133
lradius 41.6465
lwrist -9.26636
lhand -24.4137 -7.78772
lfingers 7.12502
lthumb 2.07786 22.1819
rfemur -18.9285 -1.29782 8.74946
rtibia 30.9117
rfoot -8.18405 17.5416
rtoes -3.38355
lfemur -1.14374 3.45068 -20.9934
ltibia 22.8916
lfoot -10.3671 -12.6564
ltoes -4.94923
